<svg xmlns="http://www.w3.org/2000/svg" viewBox="0 0 512 512">
  <defs>
    <linearGradient id="grad" x1="0%" y1="0%" x2="100%" y2="100%">
      <stop offset="0%" style="stop-color:#3b82f6;stop-opacity:1" />
      <stop offset="100%" style="stop-color:#06b6d4;stop-opacity:1" />
    </linearGradient>
  </defs>
  <rect width="512" height="512" rx="96" fill="url(#grad)"/>
  <path d="M160 96h128l80 80v240c0 17.7-14.3 32-32 32H160c-17.7 0-32-14.3-32-32V128c0-17.7 14.3-32 32-32z" fill="white" opacity="0.95"/>
  <path d="M288 96v48c0 17.7 14.3 32 32 32h48" fill="none" stroke="white" stroke-width="16" stroke-linecap="round"/>
  <rect x="160" y="208" width="144" height="16" rx="4" fill="#3b82f6"/>
  <rect x="160" y="248" width="192" height="16" rx="4" fill="#3b82f6" opacity="0.6"/>
  <rect x="160" y="288" width="160" height="16" rx="4" fill="#3b82f6" opacity="0.4"/>
  <rect x="160" y="328" width="128" height="16" rx="4" fill="#3b82f6" opacity="0.3"/>
</svg>
